<svg xmlns="http://www.w3.org/2000/svg" viewBox="0 0 512 512" aria-label="Backgammon">
  <defs><clipPath id="r"><rect width="512" height="512" rx="104"/></clipPath></defs>
  <g clip-path="url(#r)">
    <rect width="512" height="512" fill="#5a3d22"/>
    <rect x="51" y="51" width="410" height="410" fill="#2e6152"/>
    <!-- points: top row pointing down, bottom row pointing up, alternating -->
    <g>
      <polygon points="54,57 111,57 82,250" fill="#d9b784"/>
      <polygon points="117,57 174,57 145,250" fill="#9c6b3f"/>
      <polygon points="180,57 237,57 208,250" fill="#d9b784"/>
      <polygon points="275,57 332,57 303,250" fill="#9c6b3f"/>
      <polygon points="338,57 395,57 366,250" fill="#d9b784"/>
      <polygon points="401,57 458,57 429,250" fill="#9c6b3f"/>
      <polygon points="54,455 111,455 82,262" fill="#9c6b3f"/>
      <polygon points="117,455 174,455 145,262" fill="#d9b784"/>
      <polygon points="180,455 237,455 208,262" fill="#9c6b3f"/>
      <polygon points="275,455 332,455 303,262" fill="#d9b784"/>
      <polygon points="338,455 395,455 366,262" fill="#9c6b3f"/>
      <polygon points="401,455 458,455 429,262" fill="#d9b784"/>
    </g>
    <!-- centre bar -->
    <rect x="241" y="51" width="30" height="410" fill="#402a17"/>
    <!-- two checkers -->
    <circle cx="110" cy="392" r="42" fill="#f2e6c8"/>
    <circle cx="110" cy="392" r="24" fill="#2e6152"/>
    <circle cx="402" cy="150" r="42" fill="#2b3440"/>
    <!-- die -->
    <rect x="196" y="196" width="120" height="120" rx="22" fill="#f4f1e8"/>
    <circle cx="228" cy="228" r="12" fill="#1a1f26"/>
    <circle cx="256" cy="256" r="12" fill="#1a1f26"/>
    <circle cx="284" cy="284" r="12" fill="#1a1f26"/>
  </g>
</svg>
