<svg xmlns="http://www.w3.org/2000/svg" viewBox="0 0 512 512" width="100%" height="100%">
  <defs>
    <linearGradient id="bg" x1="0" y1="0" x2="1" y2="1">
      <stop offset="0" stop-color="#0a0a24"/>
      <stop offset="1" stop-color="#04040f"/>
    </linearGradient>
    <clipPath id="rr"><rect width="512" height="512" rx="104"/></clipPath>
  </defs>
  <rect width="512" height="512" rx="104" fill="url(#bg)"/>
  <g clip-path="url(#rr)" stroke="#00f5ff" stroke-opacity="0.08" stroke-width="2">
    <path d="M0 128H512M0 256H512M0 384H512M128 0V512M256 0V512M384 0V512"/>
  </g>
  <!-- three letter tiles, mid-shuffle -->
  <g font-family="Orbitron, 'Chakra Petch', Arial, sans-serif" font-weight="700" font-size="88" text-anchor="middle">
    <g transform="rotate(-12 150 214)">
      <rect x="92" y="156" width="116" height="116" rx="18" fill="#07071a" stroke="#00f5ff" stroke-width="10"/>
      <text x="150" y="246" fill="#00f5ff">T</text>
    </g>
    <g transform="rotate(8 256 300)">
      <rect x="198" y="242" width="116" height="116" rx="18" fill="#07071a" stroke="#ff00c8" stroke-width="10"/>
      <text x="256" y="332" fill="#ff00c8">?</text>
    </g>
    <g transform="rotate(-6 362 214)">
      <rect x="304" y="156" width="116" height="116" rx="18" fill="#07071a" stroke="#ffe600" stroke-width="10"/>
      <text x="362" y="246" fill="#ffe600">L</text>
    </g>
  </g>
  <!-- shuffle arrows -->
  <g fill="none" stroke="#00f5ff" stroke-width="14" stroke-linecap="round" stroke-linejoin="round">
    <path d="M128 400c40 42 216 42 256 0"/>
    <path d="M356 372l28 28-34 22"/>
  </g>
</svg>
